<svg width="701" height="456" viewBox="0 0 701 456" fill="white" xmlns="http://www.w3.org/2000/svg">
<path d="M5.33487 326.93V309.182H88.957V326.93H57.7852V411H36.5067V326.93H5.33487ZM96.7624 309.182H120.875L144.092 353.031H145.086L168.304 309.182H192.416L155.278 375.006V411H133.9V375.006L96.7624 309.182ZM204.174 411V309.182H244.344C252.067 309.182 258.646 310.657 264.081 313.607C269.517 316.523 273.66 320.583 276.51 325.787C279.394 330.957 280.836 336.923 280.836 343.685C280.836 350.446 279.377 356.412 276.461 361.582C273.544 366.753 269.318 370.78 263.783 373.663C258.281 376.547 251.619 377.989 243.797 377.989H218.194V360.737H240.317C244.46 360.737 247.874 360.025 250.559 358.599C253.276 357.141 255.298 355.136 256.624 352.584C257.983 349.999 258.662 347.032 258.662 343.685C258.662 340.304 257.983 337.354 256.624 334.835C255.298 332.283 253.276 330.311 250.559 328.919C247.841 327.494 244.394 326.781 240.218 326.781H225.701V411H204.174ZM294.818 411V309.182H363.426V326.93H316.345V351.192H359.896V368.94H316.345V393.251H363.625V411H294.818ZM435.775 338.464C435.377 334.454 433.671 331.339 430.654 329.118C427.638 326.897 423.545 325.787 418.375 325.787C414.861 325.787 411.895 326.284 409.475 327.278C407.056 328.24 405.2 329.582 403.907 331.305C402.648 333.029 402.018 334.984 402.018 337.172C401.952 338.995 402.333 340.586 403.162 341.945C404.023 343.304 405.2 344.48 406.691 345.474C408.183 346.436 409.906 347.281 411.862 348.01C413.817 348.706 415.905 349.303 418.126 349.8L427.274 351.987C431.715 352.982 435.792 354.307 439.504 355.964C443.216 357.622 446.431 359.66 449.149 362.08C451.867 364.499 453.971 367.349 455.463 370.631C456.987 373.912 457.766 377.674 457.799 381.916C457.766 388.147 456.175 393.55 453.027 398.124C449.911 402.664 445.404 406.194 439.504 408.713C433.637 411.199 426.561 412.442 418.275 412.442C410.056 412.442 402.896 411.182 396.798 408.663C390.733 406.144 385.993 402.416 382.579 397.477C379.199 392.506 377.425 386.357 377.26 379.033H398.091C398.323 382.446 399.3 385.297 401.024 387.584C402.78 389.838 405.117 391.545 408.034 392.705C410.984 393.831 414.315 394.395 418.027 394.395C421.672 394.395 424.838 393.865 427.522 392.804C430.24 391.743 432.345 390.268 433.836 388.379C435.328 386.49 436.074 384.319 436.074 381.866C436.074 379.58 435.394 377.657 434.035 376.099C432.709 374.542 430.754 373.216 428.169 372.122C425.617 371.028 422.484 370.034 418.772 369.139L407.686 366.355C399.101 364.267 392.324 361.002 387.352 356.561C382.38 352.12 379.911 346.137 379.944 338.614C379.911 332.449 381.552 327.063 384.866 322.456C388.214 317.849 392.804 314.253 398.637 311.668C404.471 309.082 411.1 307.79 418.524 307.79C426.081 307.79 432.676 309.082 438.311 311.668C443.978 314.253 448.386 317.849 451.535 322.456C454.684 327.063 456.308 332.399 456.407 338.464H435.775Z" fill="#0C0C4F"/>
<path d="M519.46 351.689V368.493H473.025V351.689H519.46ZM578.671 309.182H599.95V380.176C599.95 386.739 598.475 392.439 595.525 397.278C592.608 402.117 588.548 405.846 583.344 408.464C578.141 411.083 572.092 412.392 565.198 412.392C559.067 412.392 553.498 411.315 548.494 409.161C543.522 406.973 539.578 403.659 536.661 399.217C533.745 394.743 532.303 389.125 532.336 382.364H553.763C553.83 385.048 554.377 387.352 555.404 389.274C556.465 391.163 557.906 392.622 559.729 393.649C561.585 394.643 563.773 395.141 566.292 395.141C568.943 395.141 571.181 394.577 573.004 393.45C574.86 392.29 576.268 390.6 577.229 388.379C578.191 386.159 578.671 383.424 578.671 380.176V309.182ZM672.982 338.464C672.585 334.454 670.878 331.339 667.862 329.118C664.845 326.897 660.752 325.787 655.582 325.787C652.068 325.787 649.102 326.284 646.683 327.278C644.263 328.24 642.407 329.582 641.114 331.305C639.855 333.029 639.225 334.984 639.225 337.172C639.159 338.995 639.54 340.586 640.369 341.945C641.23 343.304 642.407 344.48 643.898 345.474C645.39 346.436 647.113 347.281 649.069 348.01C651.024 348.706 653.112 349.303 655.333 349.8L664.481 351.987C668.922 352.982 672.999 354.307 676.711 355.964C680.423 357.622 683.638 359.66 686.356 362.08C689.074 364.499 691.178 367.349 692.67 370.631C694.194 373.912 694.973 377.674 695.006 381.916C694.973 388.147 693.382 393.55 690.234 398.124C687.118 402.664 682.611 406.194 676.711 408.713C670.844 411.199 663.768 412.442 655.482 412.442C647.263 412.442 640.103 411.182 634.005 408.663C627.94 406.144 623.2 402.416 619.786 397.477C616.406 392.506 614.632 386.357 614.467 379.033H635.298C635.53 382.446 636.507 385.297 638.231 387.584C639.987 389.838 642.324 391.545 645.241 392.705C648.191 393.831 651.522 394.395 655.234 394.395C658.879 394.395 662.045 393.865 664.729 392.804C667.447 391.743 669.552 390.268 671.043 388.379C672.535 386.49 673.281 384.319 673.281 381.866C673.281 379.58 672.601 377.657 671.242 376.099C669.916 374.542 667.961 373.216 665.376 372.122C662.824 371.028 659.692 370.034 655.979 369.139L644.893 366.355C636.308 364.267 629.531 361.002 624.559 356.561C619.587 352.12 617.118 346.137 617.151 338.614C617.118 332.449 618.759 327.063 622.073 322.456C625.421 317.849 630.011 314.253 635.844 311.668C641.678 309.082 648.307 307.79 655.731 307.79C663.288 307.79 669.883 309.082 675.518 311.668C681.185 314.253 685.594 317.849 688.742 322.456C691.891 327.063 693.515 332.399 693.614 338.464H672.982Z" fill="#EC796B"/>
<path d="M108.696 434.281V431.636H124.456V434.281H118.102V452H115.04V434.281H108.696ZM126.367 431.636H129.857L135.177 440.893H135.396L140.715 431.636H144.205L136.818 444.006V452H133.755V444.006L126.367 431.636ZM147.106 452V431.636H154.365C155.949 431.636 157.262 431.925 158.302 432.501C159.343 433.078 160.122 433.867 160.639 434.868C161.156 435.862 161.415 436.982 161.415 438.229C161.415 439.482 161.153 440.608 160.629 441.609C160.112 442.604 159.33 443.393 158.282 443.976C157.242 444.553 155.933 444.841 154.355 444.841H149.363V442.236H154.077C155.077 442.236 155.89 442.063 156.513 441.719C157.136 441.367 157.593 440.89 157.885 440.287C158.176 439.684 158.322 438.998 158.322 438.229C158.322 437.46 158.176 436.777 157.885 436.18C157.593 435.584 157.132 435.116 156.503 434.778C155.88 434.44 155.058 434.271 154.037 434.271H150.179V452H147.106ZM165.017 452V431.636H177.784V434.281H168.089V440.486H177.117V443.121H168.089V449.355H177.903V452H165.017ZM192.994 436.986C192.888 436.045 192.451 435.315 191.682 434.798C190.913 434.275 189.945 434.013 188.778 434.013C187.943 434.013 187.22 434.145 186.611 434.411C186.001 434.669 185.527 435.027 185.189 435.484C184.857 435.935 184.692 436.449 184.692 437.026C184.692 437.509 184.804 437.927 185.03 438.278C185.262 438.63 185.563 438.925 185.934 439.163C186.312 439.395 186.717 439.591 187.148 439.75C187.578 439.902 187.993 440.028 188.39 440.128L190.379 440.645C191.029 440.804 191.695 441.019 192.378 441.291C193.06 441.563 193.693 441.921 194.277 442.365C194.86 442.809 195.331 443.359 195.689 444.016C196.053 444.672 196.236 445.457 196.236 446.372C196.236 447.526 195.937 448.55 195.341 449.445C194.751 450.339 193.892 451.045 192.765 451.562C191.645 452.08 190.29 452.338 188.699 452.338C187.174 452.338 185.855 452.096 184.741 451.612C183.628 451.128 182.756 450.442 182.126 449.554C181.497 448.659 181.148 447.598 181.082 446.372H184.165C184.224 447.108 184.463 447.721 184.881 448.212C185.305 448.696 185.845 449.057 186.501 449.295C187.164 449.527 187.89 449.643 188.679 449.643C189.547 449.643 190.319 449.508 190.996 449.236C191.678 448.957 192.215 448.573 192.606 448.082C192.997 447.585 193.193 447.005 193.193 446.342C193.193 445.739 193.021 445.245 192.676 444.861C192.338 444.476 191.877 444.158 191.294 443.906C190.717 443.654 190.064 443.432 189.335 443.24L186.929 442.584C185.298 442.14 184.006 441.487 183.051 440.625C182.103 439.763 181.629 438.623 181.629 437.205C181.629 436.031 181.947 435.007 182.584 434.132C183.22 433.257 184.082 432.578 185.169 432.094C186.256 431.603 187.482 431.358 188.848 431.358C190.227 431.358 191.443 431.6 192.497 432.084C193.558 432.568 194.393 433.234 195.003 434.082C195.613 434.924 195.931 435.892 195.957 436.986H192.994ZM216.82 438.259H213.718C213.599 437.596 213.377 437.012 213.052 436.509C212.727 436.005 212.329 435.577 211.859 435.226C211.388 434.875 210.861 434.609 210.278 434.43C209.701 434.251 209.088 434.162 208.438 434.162C207.265 434.162 206.214 434.457 205.286 435.047C204.365 435.637 203.636 436.502 203.099 437.642C202.569 438.782 202.303 440.174 202.303 441.818C202.303 443.475 202.569 444.874 203.099 446.014C203.636 447.154 204.368 448.016 205.296 448.599C206.224 449.183 207.268 449.474 208.428 449.474C209.071 449.474 209.681 449.388 210.258 449.216C210.841 449.037 211.368 448.775 211.839 448.43C212.31 448.086 212.707 447.665 213.032 447.168C213.364 446.664 213.592 446.087 213.718 445.438L216.82 445.447C216.655 446.448 216.333 447.37 215.856 448.212C215.385 449.047 214.779 449.769 214.036 450.379C213.301 450.982 212.459 451.45 211.511 451.781C210.563 452.113 209.529 452.278 208.409 452.278C206.645 452.278 205.074 451.861 203.695 451.026C202.317 450.184 201.23 448.981 200.434 447.416C199.645 445.852 199.251 443.986 199.251 441.818C199.251 439.644 199.649 437.778 200.444 436.22C201.24 434.656 202.327 433.456 203.705 432.621C205.084 431.779 206.652 431.358 208.409 431.358C209.489 431.358 210.497 431.514 211.431 431.825C212.373 432.13 213.218 432.581 213.967 433.178C214.716 433.768 215.336 434.49 215.826 435.345C216.317 436.194 216.648 437.165 216.82 438.259ZM220.497 452V431.636H227.756C229.333 431.636 230.642 431.908 231.683 432.452C232.73 432.995 233.513 433.748 234.03 434.709C234.547 435.663 234.805 436.767 234.805 438.02C234.805 439.266 234.543 440.363 234.02 441.311C233.503 442.252 232.72 442.985 231.673 443.509C230.632 444.032 229.323 444.294 227.746 444.294H222.247V441.649H227.467C228.461 441.649 229.27 441.507 229.893 441.222C230.523 440.937 230.984 440.522 231.275 439.979C231.567 439.435 231.713 438.782 231.713 438.02C231.713 437.251 231.564 436.585 231.265 436.021C230.974 435.458 230.513 435.027 229.883 434.729C229.26 434.424 228.442 434.271 227.427 434.271H223.569V452H220.497ZM230.55 442.812L235.581 452H232.081L227.149 442.812H230.55ZM241.616 431.636V452H238.544V431.636H241.616ZM246.091 452V431.636H253.349C254.934 431.636 256.246 431.925 257.287 432.501C258.327 433.078 259.106 433.867 259.623 434.868C260.14 435.862 260.399 436.982 260.399 438.229C260.399 439.482 260.137 440.608 259.613 441.609C259.096 442.604 258.314 443.393 257.267 443.976C256.226 444.553 254.917 444.841 253.339 444.841H248.348V442.236H253.061C254.062 442.236 254.874 442.063 255.497 441.719C256.12 441.367 256.577 440.89 256.869 440.287C257.161 439.684 257.307 438.998 257.307 438.229C257.307 437.46 257.161 436.777 256.869 436.18C256.577 435.584 256.117 435.116 255.487 434.778C254.864 434.44 254.042 434.271 253.021 434.271H249.163V452H246.091ZM262.997 434.281V431.636H278.757V434.281H272.403V452H269.34V434.281H262.997ZM288.645 434.281V431.636H304.405V434.281H298.051V452H294.989V434.281H288.645ZM306.317 431.636H309.807L315.126 440.893H315.345L320.665 431.636H324.155L316.767 444.006V452H313.704V444.006L306.317 431.636ZM327.056 452V431.636H334.314C335.898 431.636 337.211 431.925 338.252 432.501C339.292 433.078 340.071 433.867 340.588 434.868C341.105 435.862 341.364 436.982 341.364 438.229C341.364 439.482 341.102 440.608 340.578 441.609C340.061 442.604 339.279 443.393 338.232 443.976C337.191 444.553 335.882 444.841 334.304 444.841H329.313V442.236H334.026C335.027 442.236 335.839 442.063 336.462 441.719C337.085 441.367 337.542 440.89 337.834 440.287C338.126 439.684 338.271 438.998 338.271 438.229C338.271 437.46 338.126 436.777 337.834 436.18C337.542 435.584 337.082 435.116 336.452 434.778C335.829 434.44 335.007 434.271 333.986 434.271H330.128V452H327.056ZM344.966 452V431.636H357.733V434.281H348.038V440.486H357.067V443.121H348.038V449.355H357.852V452H344.966ZM372.943 436.986C372.837 436.045 372.4 435.315 371.631 434.798C370.862 434.275 369.894 434.013 368.727 434.013C367.892 434.013 367.17 434.145 366.56 434.411C365.95 434.669 365.476 435.027 365.138 435.484C364.807 435.935 364.641 436.449 364.641 437.026C364.641 437.509 364.753 437.927 364.979 438.278C365.211 438.63 365.512 438.925 365.884 439.163C366.262 439.395 366.666 439.591 367.097 439.75C367.528 439.902 367.942 440.028 368.34 440.128L370.328 440.645C370.978 440.804 371.644 441.019 372.327 441.291C373.01 441.563 373.643 441.921 374.226 442.365C374.809 442.809 375.28 443.359 375.638 444.016C376.003 444.672 376.185 445.457 376.185 446.372C376.185 447.526 375.887 448.55 375.29 449.445C374.7 450.339 373.842 451.045 372.715 451.562C371.594 452.08 370.239 452.338 368.648 452.338C367.123 452.338 365.804 452.096 364.691 451.612C363.577 451.128 362.705 450.442 362.075 449.554C361.446 448.659 361.098 447.598 361.031 446.372H364.114C364.173 447.108 364.412 447.721 364.83 448.212C365.254 448.696 365.794 449.057 366.45 449.295C367.113 449.527 367.839 449.643 368.628 449.643C369.496 449.643 370.269 449.508 370.945 449.236C371.628 448.957 372.164 448.573 372.556 448.082C372.947 447.585 373.142 447.005 373.142 446.342C373.142 445.739 372.97 445.245 372.625 444.861C372.287 444.476 371.826 444.158 371.243 443.906C370.666 443.654 370.013 443.432 369.284 443.24L366.878 442.584C365.247 442.14 363.955 441.487 363 440.625C362.052 439.763 361.578 438.623 361.578 437.205C361.578 436.031 361.896 435.007 362.533 434.132C363.169 433.257 364.031 432.578 365.118 432.094C366.205 431.603 367.432 431.358 368.797 431.358C370.176 431.358 371.392 431.6 372.446 432.084C373.507 432.568 374.342 433.234 374.952 434.082C375.562 434.924 375.88 435.892 375.906 436.986H372.943Z" fill="#0C0C4F"/>
<path d="M387.267 452V431.636H399.894V434.281H390.339V440.486H398.99V443.121H390.339V452H387.267ZM421.362 441.818C421.362 443.992 420.964 445.862 420.169 447.426C419.373 448.984 418.283 450.184 416.897 451.026C415.518 451.861 413.951 452.278 412.194 452.278C410.431 452.278 408.856 451.861 407.471 451.026C406.092 450.184 405.005 448.981 404.21 447.416C403.414 445.852 403.017 443.986 403.017 441.818C403.017 439.644 403.414 437.778 404.21 436.22C405.005 434.656 406.092 433.456 407.471 432.621C408.856 431.779 410.431 431.358 412.194 431.358C413.951 431.358 415.518 431.779 416.897 432.621C418.283 433.456 419.373 434.656 420.169 436.22C420.964 437.778 421.362 439.644 421.362 441.818ZM418.319 441.818C418.319 440.161 418.051 438.766 417.514 437.632C416.983 436.492 416.254 435.63 415.326 435.047C414.405 434.457 413.361 434.162 412.194 434.162C411.021 434.162 409.973 434.457 409.052 435.047C408.131 435.63 407.401 436.492 406.865 437.632C406.334 438.766 406.069 440.161 406.069 441.818C406.069 443.475 406.334 444.874 406.865 446.014C407.401 447.148 408.131 448.009 409.052 448.599C409.973 449.183 411.021 449.474 412.194 449.474C413.361 449.474 414.405 449.183 415.326 448.599C416.254 448.009 416.983 447.148 417.514 446.014C418.051 444.874 418.319 443.475 418.319 441.818ZM425.192 452V431.636H432.451C434.028 431.636 435.338 431.908 436.378 432.452C437.426 432.995 438.208 433.748 438.725 434.709C439.242 435.663 439.501 436.767 439.501 438.02C439.501 439.266 439.239 440.363 438.715 441.311C438.198 442.252 437.416 442.985 436.368 443.509C435.328 444.032 434.019 444.294 432.441 444.294H426.942V441.649H432.162C433.157 441.649 433.965 441.507 434.589 441.222C435.218 440.937 435.679 440.522 435.971 439.979C436.262 439.435 436.408 438.782 436.408 438.02C436.408 437.251 436.259 436.585 435.961 436.021C435.669 435.458 435.208 435.027 434.579 434.729C433.956 434.424 433.137 434.271 432.123 434.271H428.265V452H425.192ZM435.245 442.812L440.276 452H436.776L431.844 442.812H435.245ZM461.756 436.986C461.65 436.045 461.212 435.315 460.443 434.798C459.674 434.275 458.707 434.013 457.54 434.013C456.705 434.013 455.982 434.145 455.372 434.411C454.762 434.669 454.289 435.027 453.95 435.484C453.619 435.935 453.453 436.449 453.453 437.026C453.453 437.509 453.566 437.927 453.791 438.278C454.023 438.63 454.325 438.925 454.696 439.163C455.074 439.395 455.478 439.591 455.909 439.75C456.34 439.902 456.754 440.028 457.152 440.128L459.141 440.645C459.79 440.804 460.457 441.019 461.139 441.291C461.822 441.563 462.455 441.921 463.039 442.365C463.622 442.809 464.093 443.359 464.45 444.016C464.815 444.672 464.997 445.457 464.997 446.372C464.997 447.526 464.699 448.55 464.102 449.445C463.512 450.339 462.654 451.045 461.527 451.562C460.407 452.08 459.051 452.338 457.46 452.338C455.936 452.338 454.617 452.096 453.503 451.612C452.389 451.128 451.518 450.442 450.888 449.554C450.258 448.659 449.91 447.598 449.844 446.372H452.926C452.986 447.108 453.225 447.721 453.642 448.212C454.066 448.696 454.607 449.057 455.263 449.295C455.926 449.527 456.652 449.643 457.441 449.643C458.309 449.643 459.081 449.508 459.757 449.236C460.44 448.957 460.977 448.573 461.368 448.082C461.759 447.585 461.955 447.005 461.955 446.342C461.955 445.739 461.782 445.245 461.438 444.861C461.1 444.476 460.639 444.158 460.056 443.906C459.479 443.654 458.826 443.432 458.097 443.24L455.691 442.584C454.06 442.14 452.767 441.487 451.813 440.625C450.865 439.763 450.391 438.623 450.391 437.205C450.391 436.031 450.709 435.007 451.345 434.132C451.982 433.257 452.843 432.578 453.931 432.094C455.018 431.603 456.244 431.358 457.61 431.358C458.988 431.358 460.205 431.6 461.259 432.084C462.319 432.568 463.155 433.234 463.764 434.082C464.374 434.924 464.692 435.892 464.719 436.986H461.756ZM467.665 434.281V431.636H483.425V434.281H477.071V452H474.008V434.281H467.665ZM486.221 452H482.96L490.288 431.636H493.838L501.166 452H497.904L492.147 435.335H491.988L486.221 452ZM486.768 444.026H497.347V446.611H486.768V444.026ZM504.106 452V431.636H511.365C512.943 431.636 514.252 431.908 515.292 432.452C516.34 432.995 517.122 433.748 517.639 434.709C518.156 435.663 518.415 436.767 518.415 438.02C518.415 439.266 518.153 440.363 517.629 441.311C517.112 442.252 516.33 442.985 515.282 443.509C514.242 444.032 512.933 444.294 511.355 444.294H505.856V441.649H511.077C512.071 441.649 512.88 441.507 513.503 441.222C514.132 440.937 514.593 440.522 514.885 439.979C515.176 439.435 515.322 438.782 515.322 438.02C515.322 437.251 515.173 436.585 514.875 436.021C514.583 435.458 514.122 435.027 513.493 434.729C512.87 434.424 512.051 434.271 511.037 434.271H507.179V452H504.106ZM514.159 442.812L519.19 452H515.69L510.758 442.812H514.159ZM522.153 452V431.636H525.226V441.361H525.474L534.015 431.636H537.883L529.67 440.804L537.913 452H534.214L527.632 442.902L525.226 445.666V452H522.153ZM557.183 431.636V452H554.359L544.008 437.065H543.819V452H540.747V431.636H543.591L553.952 446.591H554.14V431.636H557.183ZM561.665 452V431.636H574.432V434.281H564.737V440.486H573.766V443.121H564.737V449.355H574.551V452H561.665ZM577.532 434.281V431.636H593.292V434.281H586.938V452H583.876V434.281H577.532Z" fill="#EC796B"/>
<path d="M415.055 36.0544C353.781 0.677604 275.432 21.671 240.056 82.9451C204.679 144.219 225.672 222.571 286.945 257.947C348.219 293.324 426.569 272.328 461.946 211.053C497.323 149.779 476.329 71.4308 415.055 36.0544Z" fill="#0C0C4F" stroke="#EC796B" stroke-width="4"/>
<path fill-rule="evenodd" clip-rule="evenodd" d="M423.121 85.0252L428.391 86.7109C429.463 87.054 430.299 87.8961 430.631 88.9697L432.276 94.2538C432.502 94.9853 433.535 94.9878 433.768 94.2609L435.454 88.988C435.797 87.9182 436.639 87.0826 437.713 86.7486L442.997 85.1051C443.726 84.8789 443.731 83.8461 443.002 83.6127L437.731 81.927C436.662 81.5847 435.825 80.7426 435.491 79.6691L433.848 74.384C433.62 73.6526 432.589 73.6483 432.356 74.3778L430.67 79.6499C430.328 80.7197 429.483 81.5562 428.41 81.8902L423.127 83.5328C422.396 83.759 422.392 84.7927 423.121 85.0252Z" fill="#FAFAFA"/>
<path fill-rule="evenodd" clip-rule="evenodd" d="M337.857 230.792C341.375 230.057 344.551 227.573 346.904 224.735C349.25 221.859 351.124 218.504 352.376 215.05C354.963 208.093 355.663 200.819 355.325 193.927C355.242 190.402 354.687 187.116 354.145 183.731C353.839 182.073 353.415 180.479 353.029 178.851L351.827 174.315C350.362 169.297 349.163 164.491 348.417 160.08C347.688 155.664 347.439 151.784 347.729 148.269C348.012 144.753 348.946 141.355 351.044 137.436C353.112 133.543 356.406 129.427 360.33 125.255C364.264 121.055 368.82 116.888 373.496 111.994C366.835 110.798 360.235 110.978 353.562 112.249C346.941 113.609 340.15 116.161 333.926 120.882C327.696 125.48 322.274 132.648 319.557 140.707C316.771 148.753 316.452 157.041 317.362 164.415C318.304 171.824 320.358 178.565 322.966 184.753C323.687 186.462 324.108 187.389 324.704 188.668L326.457 192.266C327.455 194.64 328.77 197.034 329.761 199.384C331.938 204.128 334.131 208.833 335.795 213.787C336.645 216.289 337.373 218.829 337.871 221.62C338.102 223.002 338.274 224.449 338.308 225.963C338.385 227.524 338.266 229.057 337.857 230.792Z" fill="#EC796B"/>
<path fill-rule="evenodd" clip-rule="evenodd" d="M337.857 230.792C344.768 231.811 351.895 230.4 358.6 226.855C365.246 223.322 371.442 216.663 374.332 208.186C375.775 204.008 376.478 199.558 376.459 195.287C376.44 191.034 375.851 186.893 374.878 183.041C374.387 181.115 373.778 179.273 373.157 177.434L371.149 172.435L367.807 164.575C363.477 154.516 358.092 143.266 361.236 131.723C364.323 120.39 369.081 117.45 373.496 111.994C370.028 111.456 366.491 111.227 363.005 111.672C359.491 112.054 355.938 112.852 352.415 114.36C350.684 115.151 348.924 116.024 347.215 117.137C345.538 118.258 343.883 119.554 342.33 121.063C339.275 124.083 336.598 127.923 334.87 132.14C333.133 136.354 332.213 140.81 331.972 145.03C331.703 149.265 332.033 153.28 332.65 157.053C333.939 164.586 336.325 171.244 339.116 177.316C340.506 180.363 342.03 183.279 343.621 186.081L345.526 189.398C346.07 190.39 346.616 191.391 347.099 192.366C349.036 196.293 350.374 199.814 350.826 203.412C351.348 207.004 350.802 211.272 348.484 216.058C346.182 220.827 342.509 225.746 337.857 230.792Z" fill="#EC796B"/>
<path fill-rule="evenodd" clip-rule="evenodd" d="M337.857 230.792C344.768 231.811 351.895 230.4 358.6 226.855C365.246 223.322 371.442 216.663 374.332 208.186C375.775 204.008 376.478 199.558 376.459 195.287C376.44 191.034 375.851 186.893 374.878 183.041C374.387 181.115 373.778 179.273 373.157 177.434L371.149 172.435L367.807 164.575C363.477 154.516 358.092 143.266 361.236 131.723C364.323 120.39 369.081 117.45 373.496 111.994C370.028 111.456 366.491 111.227 363.005 111.672C359.491 112.054 355.938 112.852 352.415 114.36C350.684 115.151 348.924 116.024 347.215 117.137C345.538 118.258 343.883 119.554 342.33 121.063C339.275 124.083 336.598 127.923 334.87 132.14C333.133 136.354 332.213 140.81 331.972 145.03C331.703 149.265 332.033 153.28 332.65 157.053C333.939 164.586 336.325 171.244 339.116 177.316C340.506 180.363 342.03 183.279 343.621 186.081L345.526 189.398C346.07 190.39 346.616 191.391 347.099 192.366C349.036 196.293 350.374 199.814 350.826 203.412C351.348 207.004 350.802 211.272 348.484 216.058C346.182 220.827 342.509 225.746 337.857 230.792Z" fill="#BE5245" fill-opacity="0.75"/>
<path fill-rule="evenodd" clip-rule="evenodd" d="M272.731 96.6419C273.663 99.5714 276.808 102.216 280.403 104.175C284.046 106.129 288.295 107.689 292.669 108.732C301.48 110.886 310.692 111.469 319.42 111.188C323.885 111.118 328.047 110.657 332.334 110.205C334.433 109.951 336.452 109.597 338.514 109.276L344.258 108.275C350.614 107.055 356.7 106.057 362.287 105.435C367.88 104.829 372.794 104.621 377.245 104.863C381.699 105.098 386.002 105.876 390.965 107.623C395.896 109.345 401.108 112.088 406.392 115.356C411.712 118.632 416.988 122.425 423.187 126.319C424.702 120.772 424.474 115.276 422.864 109.72C421.141 104.206 417.909 98.5512 411.931 93.3688C406.107 88.1806 397.03 83.6659 386.822 81.4034C376.633 79.0833 366.136 78.818 356.797 79.5756C347.414 80.3599 338.877 82.07 331.039 84.2418C328.875 84.8424 327.701 85.1927 326.081 85.689L321.524 87.1486C318.518 87.9803 315.485 89.075 312.509 89.8999C306.501 91.7127 300.543 93.5396 294.268 94.9245C291.1 95.6324 287.882 96.2386 284.348 96.6534C282.598 96.8463 280.765 96.9891 278.848 97.0172C276.871 97.0818 274.929 96.9829 272.731 96.6419Z" fill="#EC796B"/>
<path fill-rule="evenodd" clip-rule="evenodd" d="M272.731 96.6419C273.663 99.5714 276.808 102.216 280.403 104.175C284.046 106.129 288.295 107.689 292.669 108.732C301.48 110.886 310.692 111.469 319.42 111.188C323.885 111.118 328.047 110.657 332.334 110.205C334.433 109.951 336.452 109.597 338.514 109.276L344.258 108.275C350.614 107.055 356.7 106.057 362.287 105.435C367.88 104.829 372.794 104.621 377.245 104.863C381.699 105.098 386.002 105.876 390.965 107.623C395.896 109.345 401.108 112.088 406.392 115.356C411.712 118.632 416.988 122.425 423.187 126.319C424.702 120.772 424.474 115.276 422.864 109.72C421.141 104.206 417.909 98.5512 411.931 93.3688C406.107 88.1806 397.03 83.6659 386.822 81.4034C376.633 79.0833 366.136 78.818 356.797 79.5756C347.414 80.3599 338.877 82.07 331.039 84.2418C328.875 84.8424 327.701 85.1927 326.081 85.689L321.524 87.1486C318.518 87.9803 315.485 89.075 312.509 89.8999C306.501 91.7127 300.543 93.5396 294.268 94.9245C291.1 95.6324 287.882 96.2386 284.348 96.6534C282.598 96.8463 280.765 96.9891 278.848 97.0172C276.871 97.0818 274.929 96.9829 272.731 96.6419Z" fill="#E4786B" fill-opacity="0.88"/>
<path fill-rule="evenodd" clip-rule="evenodd" d="M272.733 96.6425C271.443 102.398 273.229 108.332 277.719 113.915C282.193 119.45 290.628 124.61 301.363 127.016C306.654 128.218 312.29 128.803 317.699 128.788C323.086 128.771 328.33 128.281 333.208 127.471C335.648 127.062 337.981 126.555 340.311 126.038L346.642 124.366L356.595 121.583C369.335 117.977 383.583 113.493 398.202 116.111C412.554 118.681 416.279 122.644 423.189 126.32C423.87 123.432 424.16 120.487 423.596 117.584C423.112 114.658 422.102 111.699 420.192 108.765C419.19 107.324 418.084 105.858 416.675 104.435C415.255 103.039 413.613 101.66 411.703 100.368C407.878 97.8237 403.014 95.5945 397.674 94.1551C392.337 92.7087 386.694 91.9427 381.349 91.7422C375.986 91.518 370.9 91.7932 366.122 92.3071C356.582 93.3806 348.149 95.3669 340.459 97.6916C336.601 98.8486 332.908 100.118 329.358 101.442L325.158 103.029C323.901 103.482 322.634 103.936 321.399 104.339C316.425 105.951 311.966 107.066 307.409 107.443C302.86 107.877 297.455 107.422 291.394 105.492C285.354 103.575 279.123 100.516 272.733 96.6425Z" fill="white"/>
<path fill-rule="evenodd" clip-rule="evenodd" d="M272.733 96.6425C271.443 102.398 273.229 108.332 277.719 113.915C282.193 119.45 290.628 124.61 301.363 127.016C306.654 128.218 312.29 128.803 317.699 128.788C323.086 128.771 328.33 128.281 333.208 127.471C335.648 127.062 337.981 126.555 340.311 126.038L346.642 124.366L356.595 121.583C369.335 117.977 383.583 113.493 398.202 116.111C412.554 118.681 416.279 122.644 423.189 126.32C423.87 123.432 424.16 120.487 423.596 117.584C423.112 114.658 422.102 111.699 420.192 108.765C419.19 107.324 418.084 105.858 416.675 104.435C415.255 103.039 413.613 101.66 411.703 100.368C407.878 97.8237 403.014 95.5945 397.674 94.1551C392.337 92.7087 386.694 91.9427 381.349 91.7422C375.986 91.518 370.9 91.7932 366.122 92.3071C356.582 93.3806 348.149 95.3669 340.459 97.6916C336.601 98.8486 332.908 100.118 329.358 101.442L325.158 103.029C323.901 103.482 322.634 103.936 321.399 104.339C316.425 105.951 311.966 107.066 307.409 107.443C302.86 107.877 297.455 107.422 291.394 105.492C285.354 103.575 279.123 100.516 272.733 96.6425Z" fill="white" fill-opacity="0.25"/>
<path fill-rule="evenodd" clip-rule="evenodd" d="M279.469 189.932C275.157 187.442 269.641 188.921 267.152 193.232C264.663 197.544 266.143 203.055 270.455 205.544C274.766 208.033 280.28 206.56 282.769 202.248C285.258 197.937 283.78 192.421 279.469 189.932Z" fill="#EC796B"/>
</svg>
